<svg id="layer" xmlns="http://www.w3.org/2000/svg" viewBox="0 0 500 100"><defs><style>.cls-1{fill:#333;}.cls-2{fill:#eaeaea;}.cls-3{fill:#ef5750;}.cls-4{fill:#f96e90;}.cls-5{fill:#46d0d3;}.cls-6{fill:#dfea49;}.cls-7{fill:#ef966f;}</style></defs><title>logo</title><g id="logo_icon"><g id="head"><path class="cls-1" d="M97.2,87.22H42.8c-7,0-12.8-7.58-12.8-16.85V32.48a19.8,19.8,0,0,1,3.76-11.9c2.82-3.71,6.36-4.46,9-4.94a123,123,0,0,1,27-1.48c11.92.51,17.94.71,20.8,0,9.37-2.29,16.64-7.58,17.92-5.05,1,2.09-3.58,6.35-2.32,11.47.68,2.77,2.64,3.72,3.42,8.05a22.05,22.05,0,0,1,.34,3.85V70.37C110,79.64,104.24,87.22,97.2,87.22Z"/></g><rect id="face" class="cls-2" x="38.84" y="29.53" width="58.95" height="50.53" rx="25.26"/><rect id="line" class="cls-3" x="41.37" y="87.1" width="61.05" height="5.05" rx="2.53"/><g id="eye"><path class="cls-1" d="M62.16,50.65c0,4-2.23,7.54-7,7.54s-7-3.5-7-7.58,2.14-7.56,6.9-7.56S62.16,46.63,62.16,50.65Zm-5,.06c0-2.19-.55-3.56-2.07-3.56s-1.85,1.46-1.85,3.27c0,2.23.53,3.62,2,3.62C56.94,54,57.15,52.19,57.15,50.71Z"/><path class="cls-1" d="M83.42,57.45c0,.29,0,.29-.38.29h-4.1c-.34,0-.38-.06-.38-.29V45.09c0-.17.06-.23.25-.29,1.45-.64,3-1.23,4.23-1.69.38-.15.38-.17.38.3Z"/></g><rect id="mouth" class="cls-1" x="63.68" y="66.58" width="12.63" height="4.21" rx="2.11"/></g><g id="group1"><path id="moji_1" class="cls-4" d="M372,71.57q6.24,0,9.72,3a9.78,9.78,0,0,1,3.48,7.84,11.36,11.36,0,0,1-2.64,7.6,12.41,12.41,0,0,1-7.16,4.08,2.19,2.19,0,0,1-1.74-.36,2.54,2.54,0,0,1-1.06-1.52l-.4-1.6a2,2,0,0,1,.22-1.6,2.53,2.53,0,0,1,1.34-1.08,7.28,7.28,0,0,0,3.4-2.2,5,5,0,0,0,1.24-3.32,3.92,3.92,0,0,0-.88-2.64c-.13-.13-.25-.11-.36.08a24.07,24.07,0,0,1-7.34,9.74A16.15,16.15,0,0,1,360,92.77a8.53,8.53,0,0,1-6.12-2.16,7.67,7.67,0,0,1-2.28-5.84,9.52,9.52,0,0,1,2.3-6A17.28,17.28,0,0,1,360.21,74a.49.49,0,0,0,.32-.52c0-1.6-.08-2.81-.08-3.64a.32.32,0,0,0-.36-.36c-1.92.05-3.34.08-4.28.08a2.14,2.14,0,0,1-1.58-.68,2.22,2.22,0,0,1-.66-1.6V65.65a2.32,2.32,0,0,1,2.28-2.28c.94,0,2.34,0,4.2-.08a.28.28,0,0,0,.32-.32V61.45a2.32,2.32,0,0,1,2.28-2.28h2.24a2.21,2.21,0,0,1,1.6.66,2.11,2.11,0,0,1,.68,1.58v1.32c0,.24.11.36.32.36q5.52-.2,12.72-.76a2.14,2.14,0,0,1,1.6.58,2.24,2.24,0,0,1,.76,1.54l.12,1.64a2.21,2.21,0,0,1-.6,1.66,2.27,2.27,0,0,1-1.56.78q-7.35.56-12.92.76a.32.32,0,0,0-.36.36c0,.21,0,.53,0,1s0,.75,0,1,.12.33.36.28A29.66,29.66,0,0,1,372,71.57Zm-11.36,14.8a.28.28,0,0,0,.32-.32c-.05-1-.1-2.63-.16-4.76,0-.21-.1-.25-.32-.12-1.38,1.09-2.08,2.16-2.08,3.2C358.37,85.65,359.12,86.32,360.61,86.37Zm9.88-8.28c.06-.19,0-.28-.16-.28a23.87,23.87,0,0,0-2.52.36.36.36,0,0,0-.32.36c.06,1.71.1,3,.12,3.88a.14.14,0,0,0,.06.12.12.12,0,0,0,.14,0A23.71,23.71,0,0,0,370.49,78.09Z"/><path id="moji_2" class="cls-4" d="M422.89,77.89a2.25,2.25,0,0,1,1.24,3q-2.91,6.91-7,10a15.3,15.3,0,0,1-9.58,3.1q-6.51,0-9.46-3.14t-2.94-10.46q0-1.2.2-9.68.17-5.32.2-8a2.25,2.25,0,0,1,2.28-2.28h3.24a2.21,2.21,0,0,1,1.6.66,2.11,2.11,0,0,1,.68,1.58q0,2.64-.2,7.76c-.13,5.65-.2,9-.2,10,0,2.43.37,4.13,1.1,5.12a4.07,4.07,0,0,0,3.5,1.48,7.6,7.6,0,0,0,5.14-2q2.27-2,4.54-7a2.38,2.38,0,0,1,1.26-1.2,2.19,2.19,0,0,1,1.74,0Z"/><path id="moji_3" class="cls-4" d="M456.37,64.17a10.73,10.73,0,0,1,7.9,2.86,10.36,10.36,0,0,1,2.9,7.74,10.32,10.32,0,0,1-2.9,7.78,10.83,10.83,0,0,1-7.9,2.82,22.84,22.84,0,0,1-4.2-.48,2.09,2.09,0,0,1-1.48-1,2.37,2.37,0,0,1-.32-1.78l.4-1.92a2.42,2.42,0,0,1,.94-1.46,2.24,2.24,0,0,1,1.66-.42c1.28.16,2,.24,2.2.24q4,0,4-3.8c0-2.27-1.18-3.4-3.56-3.4-.21,0-.29.11-.24.32s.13.47.22.86l.22.86a2.13,2.13,0,0,1-.24,1.7,2.18,2.18,0,0,1-1.4,1.06l-2.4.64a2.32,2.32,0,0,1-2.8-1.64c-.05-.21-.13-.52-.24-.92s-.18-.71-.24-.92-.21-.35-.48-.24-.76.23-1.42.46l-1.54.54a.36.36,0,0,0-.2.4q2.37,7.92,4.56,16.28a2.13,2.13,0,0,1-.24,1.7,2.18,2.18,0,0,1-1.4,1.06l-2.8.68a2.14,2.14,0,0,1-1.7-.24,2.24,2.24,0,0,1-1.06-1.4q-1.59-6.36-4.32-15.8c-.05-.19-.18-.25-.4-.2l-2.1.68-1.82.6a2.29,2.29,0,0,1-2.88-1.44l-.84-2.48a2.24,2.24,0,0,1,.14-1.72,2.14,2.14,0,0,1,1.34-1.12l4.12-1.24a.29.29,0,0,0,.24-.4c-.64-2-1.12-3.53-1.44-4.52a2.15,2.15,0,0,1,.16-1.7,2.24,2.24,0,0,1,1.36-1.1l2.6-.72a2.24,2.24,0,0,1,1.76.16,2.16,2.16,0,0,1,1.12,1.32c.22.67.67,2.12,1.36,4.36,0,.19.19.24.48.16s.91-.28,1.6-.52,1.19-.4,1.48-.48.3-.2.24-.44c-.37-1.17-.64-2-.8-2.64a2.11,2.11,0,0,1,.18-1.7,2.3,2.3,0,0,1,1.38-1.1l2.6-.72a2.09,2.09,0,0,1,1.72.18A2.14,2.14,0,0,1,453,61.37l.36,1.26c.19.63.32,1.11.4,1.46s.22.29.48.24A14.87,14.87,0,0,1,456.37,64.17Z"/><g id="coderdojo"><path class="cls-5" d="M167.44,37.58a18.14,18.14,0,0,1-16.75,11.3c-10.8,0-18.25-7.25-18.25-18,0-10.1,7.3-18.15,18.4-18.15,8.7,0,14.1,4.95,16.3,10.65.25.6,0,.75-.25.85l-9.75,3.55c-.3.1-.35-.1-.45-.3-1.05-2-2.7-3.3-5.9-3.3-4.3,0-6.65,2.75-6.65,6.75s2.7,6.6,6.8,6.6a6.05,6.05,0,0,0,5.7-3.25c.15-.35.2-.45.6-.35l9.75,3C167.54,37,167.59,37.28,167.44,37.58Z"/><path class="cls-6" d="M197.24,35.08c0,8.05-5.55,13.75-13.75,13.75-8.35,0-14.15-5.6-14.15-13.75s5.75-13.65,14.1-13.65S197.24,27,197.24,35.08Zm-10.2,0a3.64,3.64,0,0,0-3.85-3.9,3.7,3.7,0,0,0-4,3.9c0,2.9,1.6,4.05,4,4.05S187,37.73,187,35.08Z"/><path class="cls-5" d="M228.34,47.08c0,.6,0,.65-.35.65h-9.6c-.35,0-.45,0-.45-.65v-1.5c-1.7,2.35-4.45,2.85-6.65,2.85-7.35,0-11.55-5.1-11.55-13.4,0-8,4.8-13.25,11.6-13.25a10.26,10.26,0,0,1,6.35,2.2V13.38c0-.55.05-.65.4-.65h9.85c.35,0,.4,0,.4.7Zm-10.5-11.85a3.85,3.85,0,0,0-3.9-4,3.78,3.78,0,0,0-3.95,4c0,2.75,1.55,4.05,3.95,4.05A3.72,3.72,0,0,0,217.84,35.23Z"/><path class="cls-5" d="M258.64,33.33a22.75,22.75,0,0,1-.2,3.7c-.05.5-.25.6-1.05.6h-15c.15,1.4,1.5,2.75,3.85,2.75a7.51,7.51,0,0,0,4.2-1.1c.2-.2.4-.1.65.2,1,1.45,2.35,3.65,3.8,6,.3.5.2.8-.3,1.15a14.28,14.28,0,0,1-8.25,2.25c-8.2,0-13.7-5.3-13.7-13.85,0-8.15,5.5-13.6,13.8-13.6C253.34,21.43,258.64,26.13,258.64,33.33Zm-8.8-.65c-.15-1.6-1.5-2.8-3.85-2.8a3.4,3.4,0,0,0-3.65,2.8Z"/><path class="cls-5" d="M286.24,27.73c-1.05,1.2-5.1,5.3-5.75,5.95-.15.15-.05.2-1.05.2,0-2.3-1-3.45-2.9-3.45a3.93,3.93,0,0,0-3.1,1.9v14.8c0,.45-.1.55-.4.55h-10.2c-.35,0-.4,0-.4-.7V23c0-.55,0-.6.35-.6h10c.35,0,.45.05.45.6v2.75a7.33,7.33,0,0,1,6.25-4.2C283.39,21.58,286,23.88,286.24,27.73Z"/><path class="cls-5" d="M321.69,30.73c0,11.45-5.95,17-18.15,17h-13.4c-.45,0-.5,0-.5-.45V14.28c0-.4.05-.5.5-.5h14.65C316.29,13.78,321.69,19.73,321.69,30.73Zm-12-.15c0-5.45-2.7-7.4-6.25-7.4H301v15.1h2.3C306.69,38.28,309.69,36.43,309.69,30.58Z"/><path class="cls-7" d="M352.34,35.08c0,8.05-5.55,13.75-13.75,13.75s-14.15-5.6-14.15-13.75,5.75-13.65,14.1-13.65S352.34,27,352.34,35.08Zm-10.2,0a3.64,3.64,0,0,0-3.85-3.9,3.7,3.7,0,0,0-4,3.9c0,2.9,1.6,4.05,4,4.05S342.14,37.73,342.14,35.08Z"/><path class="cls-5" d="M368.39,45.43c0,6.75-2.7,10.55-10.05,10.55a18.43,18.43,0,0,1-5.6-1c-.3,0-.5-.3-.45-.75,0-.7.55-5.9.55-6.5s.35-.75,1-.6c2.4.65,3.45-.05,3.45-2.7V23c0-.25,0-.6.35-.6h10.3c.35,0,.45.05.45.6Zm0-25.3c0,.45-.1.55-.4.55h-10.3c-.35,0-.4-.35-.4-.65V13.38c0-.3,0-.65.35-.65h10.3c.35,0,.45,0,.45.65Z"/><path class="cls-5" d="M400,35.08c0,8.05-5.55,13.75-13.75,13.75-8.35,0-14.15-5.6-14.15-13.75s5.75-13.65,14.1-13.65S400,27,400,35.08Zm-10.2,0a3.64,3.64,0,0,0-3.85-3.9,3.7,3.7,0,0,0-4,3.9c0,2.9,1.6,4.05,4,4.05S389.79,37.73,389.79,35.08Z"/></g></g></svg>