<svg id="レイヤー_1" data-name="レイヤー 1" xmlns="http://www.w3.org/2000/svg" viewBox="0 0 500 500"><defs><style>.cls-1{fill:#333;}.cls-2{fill:#eaeaea;}.cls-3{fill:#ef5750;}</style></defs><title>名称未設定-3</title><path class="cls-1" d="M352,388.43H148c-26.4,0-48-28.42-48-63.15V183.14c0-17.37,5.4-33.16,14.1-44.6C124.68,124.62,138,121.78,148,120c44.33-8,84.19-6.25,101.4-5.52,44.7,1.88,67.27,2.63,78,0,35.13-8.62,62.41-28.43,67.2-19,3.95,7.83-13.43,23.81-8.7,43,2.55,10.36,9.91,13.92,12.83,30.17A82.12,82.12,0,0,1,400,183.14V325.25C400,360,378.4,388.43,352,388.43Z"/><rect class="cls-2" x="133.16" y="172.09" width="221.05" height="189.47" rx="40"/><rect class="cls-3" x="142.63" y="387.96" width="228.95" height="18.95" rx="6"/><path class="cls-1" d="M220.59,251.28c0,15.16-8.37,28.26-26.21,28.26-17.29,0-26.37-13.1-26.29-28.42s8-28.35,25.89-28.35S220.59,236.2,220.59,251.28Zm-18.79.23c0-8.21-2.05-13.34-7.74-13.34-5.45,0-6.95,5.45-6.95,12.24,0,8.37,2,13.58,7.42,13.58,6.47,0,7.27-6.95,7.27-12.48Z"/><path class="cls-1" d="M300.32,276.78c0,1.1-.08,1.1-1.42,1.1H283.51c-1.27,0-1.43-.23-1.43-1.1V230.43c0-.63.24-.87.95-1.1,5.45-2.37,11.13-4.58,15.87-6.32,1.42-.55,1.42-.63,1.42,1.11Z"/><rect class="cls-1" x="226.32" y="311.04" width="47.37" height="15.79" rx="5"/></svg>