<svg id="レイヤー_1" data-name="レイヤー 1" xmlns="http://www.w3.org/2000/svg" viewBox="0 0 300 429.72"><defs><style>.cls-1{fill:#333;}.cls-2{fill:#eaeaea;}.cls-3{fill:#ef5750;}.cls-4{fill:#46d0d3;}.cls-5{fill:#dfea49;}.cls-6{fill:#ef966f;}.cls-7{fill:#f96e90;}</style></defs><title>coderdojo-ashiya_logo1</title><path class="cls-1" d="M353,321H149c-26.4,0-48-28.42-48-63.15V115.71c0-17.37,5.4-33.16,14.1-44.6C125.68,57.19,139,54.35,149,52.55,193.33,44.6,233.19,46.3,250.4,47c44.7,1.88,67.27,2.63,78,0,35.13-8.62,62.41-28.43,67.2-19,3.95,7.83-13.43,23.81-8.7,43,2.55,10.36,9.91,13.92,12.83,30.17A82,82,0,0,1,401,115.71V257.82C401,292.55,379.4,321,353,321Z" transform="translate(-101 -25.57)"/><rect class="cls-2" x="33.16" y="79.09" width="221.05" height="189.47" rx="40"/><rect class="cls-3" x="42.63" y="294.96" width="228.95" height="18.95" rx="6"/><path class="cls-1" d="M221.59,183.85c0,15.16-8.37,28.26-26.21,28.26-17.29,0-26.37-13.1-26.29-28.42s8-28.35,25.89-28.35S221.59,168.77,221.59,183.85Zm-18.79.23c0-8.21-2.05-13.34-7.74-13.34-5.45,0-6.95,5.45-6.95,12.24,0,8.37,2,13.58,7.42,13.58C202,196.56,202.8,189.61,202.8,184.08Z" transform="translate(-101 -25.57)"/><path class="cls-1" d="M301.32,209.35c0,1.1-.08,1.1-1.42,1.1H284.51c-1.27,0-1.43-.23-1.43-1.1V163c0-.63.24-.87.95-1.1,5.45-2.37,11.13-4.58,15.87-6.32,1.42-.55,1.42-.63,1.42,1.11Z" transform="translate(-101 -25.57)"/><rect class="cls-1" x="126.32" y="218.04" width="47.37" height="15.79" rx="5"/><path class="cls-4" d="M152.44,398.58a18.14,18.14,0,0,1-16.75,11.3c-10.8,0-18.25-7.25-18.25-18,0-10.1,7.3-18.15,18.4-18.15,8.7,0,14.1,4.95,16.3,10.65.25.6,0,.75-.25.85l-9.75,3.55c-.3.1-.35-.1-.45-.3-1.05-2-2.7-3.3-5.9-3.3-4.3,0-6.65,2.75-6.65,6.75s2.7,6.6,6.8,6.6a6.05,6.05,0,0,0,5.7-3.25c.15-.35.2-.45.6-.35l9.75,3C152.54,398,152.59,398.28,152.44,398.58Z" transform="translate(-101 -25.57)"/><path class="cls-5" d="M182.24,396.08c0,8.05-5.55,13.75-13.75,13.75-8.35,0-14.15-5.6-14.15-13.75s5.75-13.65,14.1-13.65S182.24,388,182.24,396.08Zm-10.2,0a3.64,3.64,0,0,0-3.85-3.9,3.7,3.7,0,0,0-4,3.9c0,2.9,1.6,4.05,4,4.05S172,398.73,172,396.08Z" transform="translate(-101 -25.57)"/><path class="cls-4" d="M213.34,408.08c0,.6,0,.65-.35.65h-9.6c-.35,0-.45-.05-.45-.65v-1.5c-1.7,2.35-4.45,2.85-6.65,2.85-7.35,0-11.55-5.1-11.55-13.4,0-8,4.8-13.25,11.6-13.25a10.26,10.26,0,0,1,6.35,2.2v-10.6c0-.55.05-.65.4-.65h9.85c.35,0,.4,0,.4.7Zm-10.5-11.85a3.85,3.85,0,0,0-3.9-4.05,3.78,3.78,0,0,0-3.95,4.05c0,2.75,1.55,4,3.95,4A3.72,3.72,0,0,0,202.84,396.23Z" transform="translate(-101 -25.57)"/><path class="cls-4" d="M243.64,394.33a22.75,22.75,0,0,1-.2,3.7c-.05.5-.25.6-1.05.6h-15c.15,1.4,1.5,2.75,3.85,2.75a7.51,7.51,0,0,0,4.2-1.1c.2-.2.4-.1.65.2,1,1.45,2.35,3.65,3.8,6,.3.5.2.8-.3,1.15a14.28,14.28,0,0,1-8.25,2.25c-8.2,0-13.7-5.3-13.7-13.85,0-8.15,5.5-13.6,13.8-13.6C238.34,382.43,243.64,387.13,243.64,394.33Zm-8.8-.65c-.15-1.6-1.5-2.8-3.85-2.8a3.4,3.4,0,0,0-3.65,2.8Z" transform="translate(-101 -25.57)"/><path class="cls-4" d="M271.24,388.73c-1.05,1.2-5.1,5.3-5.75,5.95-.15.15-.05.2-1.05.2,0-2.3-1-3.45-2.9-3.45a3.93,3.93,0,0,0-3.1,1.9v14.8c0,.45-.1.55-.4.55h-10.2c-.35,0-.4,0-.4-.7V384c0-.55,0-.6.35-.6h10c.35,0,.45.05.45.6v2.75a7.33,7.33,0,0,1,6.25-4.2C268.39,382.58,271,384.88,271.24,388.73Z" transform="translate(-101 -25.57)"/><path class="cls-4" d="M306.69,391.73c0,11.45-5.95,16.95-18.15,16.95h-13.4c-.45,0-.5.05-.5-.45v-33c0-.4.05-.5.5-.5h14.65C301.29,374.78,306.69,380.73,306.69,391.73Zm-12-.15c0-5.45-2.7-7.4-6.25-7.4H286v15.1h2.3C291.69,399.28,294.69,397.43,294.69,391.58Z" transform="translate(-101 -25.57)"/><path class="cls-6" d="M337.34,396.08c0,8.05-5.55,13.75-13.75,13.75s-14.15-5.6-14.15-13.75,5.75-13.65,14.1-13.65S337.34,388,337.34,396.08Zm-10.2,0a3.64,3.64,0,0,0-3.85-3.9,3.7,3.7,0,0,0-4,3.9c0,2.9,1.6,4.05,4,4.05S327.14,398.73,327.14,396.08Z" transform="translate(-101 -25.57)"/><path class="cls-4" d="M353.39,406.43c0,6.75-2.7,10.55-10.05,10.55a18.43,18.43,0,0,1-5.6-1c-.3-.05-.5-.3-.45-.75,0-.7.55-5.9.55-6.5s.35-.75,1-.6c2.4.65,3.45-.05,3.45-2.7V384c0-.25,0-.6.35-.6h10.3c.35,0,.45.05.45.6Zm0-25.3c0,.45-.1.55-.4.55h-10.3c-.35,0-.4-.35-.4-.65v-6.65c0-.3,0-.65.35-.65h10.3c.35,0,.45,0,.45.65Z" transform="translate(-101 -25.57)"/><path class="cls-4" d="M385,396.08c0,8.05-5.55,13.75-13.75,13.75-8.35,0-14.15-5.6-14.15-13.75s5.75-13.65,14.1-13.65S385,388,385,396.08Zm-10.2,0a3.64,3.64,0,0,0-3.85-3.9,3.7,3.7,0,0,0-4,3.9c0,2.9,1.6,4.05,4,4.05S374.79,398.73,374.79,396.08Z" transform="translate(-101 -25.57)"/><path class="cls-7" d="M213,432.57q6.24,0,9.72,3a9.78,9.78,0,0,1,3.48,7.84,11.36,11.36,0,0,1-2.64,7.6,12.41,12.41,0,0,1-7.16,4.08,2.19,2.19,0,0,1-1.74-.36,2.54,2.54,0,0,1-1.06-1.52l-.4-1.6a2,2,0,0,1,.22-1.6,2.53,2.53,0,0,1,1.34-1.08,7.28,7.28,0,0,0,3.4-2.2,5,5,0,0,0,1.24-3.32,3.92,3.92,0,0,0-.88-2.64c-.13-.13-.25-.11-.36.08a24.07,24.07,0,0,1-7.34,9.74,16.15,16.15,0,0,1-9.82,3.22,8.53,8.53,0,0,1-6.12-2.16,7.67,7.67,0,0,1-2.28-5.84,9.52,9.52,0,0,1,2.3-6,17.28,17.28,0,0,1,6.34-4.76.49.49,0,0,0,.32-.52c-.05-1.6-.08-2.81-.08-3.64a.32.32,0,0,0-.36-.36c-1.92.05-3.34.08-4.28.08a2.14,2.14,0,0,1-1.58-.68,2.22,2.22,0,0,1-.66-1.6v-1.64a2.32,2.32,0,0,1,2.28-2.28c.94,0,2.34,0,4.2-.08a.28.28,0,0,0,.32-.32v-1.52a2.32,2.32,0,0,1,2.28-2.28h2.24a2.21,2.21,0,0,1,1.6.66,2.11,2.11,0,0,1,.68,1.58v1.32c0,.24.11.36.32.36q5.52-.19,12.72-.76a2.14,2.14,0,0,1,1.6.58,2.24,2.24,0,0,1,.76,1.54l.12,1.64a2.21,2.21,0,0,1-.6,1.66,2.27,2.27,0,0,1-1.56.78q-7.35.56-12.92.76a.32.32,0,0,0-.36.36c0,.21,0,.53,0,1s0,.75,0,1,.12.33.36.28A29.66,29.66,0,0,1,213,432.57Zm-11.36,14.8a.28.28,0,0,0,.32-.32c-.05-1-.1-2.63-.16-4.76,0-.21-.1-.25-.32-.12-1.38,1.09-2.08,2.16-2.08,3.2C199.37,446.65,200.12,447.32,201.61,447.37Zm9.88-8.28c.06-.19,0-.28-.16-.28a23.87,23.87,0,0,0-2.52.36.36.36,0,0,0-.32.36c.06,1.71.1,3,.12,3.88a.14.14,0,0,0,.06.12.12.12,0,0,0,.14,0A23.71,23.71,0,0,0,211.49,439.09Z" transform="translate(-101 -25.57)"/><path class="cls-7" d="M263.89,438.89a2.25,2.25,0,0,1,1.24,3q-2.91,6.91-7,10a15.3,15.3,0,0,1-9.58,3.1q-6.51,0-9.46-3.14t-2.94-10.46q0-1.2.2-9.68.16-5.32.2-8a2.25,2.25,0,0,1,2.28-2.28h3.24a2.21,2.21,0,0,1,1.6.66,2.11,2.11,0,0,1,.68,1.58q0,2.64-.2,7.76c-.13,5.65-.2,9-.2,10,0,2.43.37,4.13,1.1,5.12a4.07,4.07,0,0,0,3.5,1.48,7.6,7.6,0,0,0,5.14-2q2.26-2,4.54-7a2.38,2.38,0,0,1,1.26-1.2,2.19,2.19,0,0,1,1.74,0Z" transform="translate(-101 -25.57)"/><path class="cls-7" d="M297.37,425.17a10.73,10.73,0,0,1,7.9,2.86,11.83,11.83,0,0,1,0,15.52,10.83,10.83,0,0,1-7.9,2.82,22.84,22.84,0,0,1-4.2-.48,2.09,2.09,0,0,1-1.48-1,2.37,2.37,0,0,1-.32-1.78l.4-1.92a2.42,2.42,0,0,1,.94-1.46,2.24,2.24,0,0,1,1.66-.42c1.28.16,2,.24,2.2.24q4,0,4-3.8c0-2.27-1.18-3.4-3.56-3.4-.21,0-.29.11-.24.32s.13.47.22.86l.22.86a2.13,2.13,0,0,1-.24,1.7,2.18,2.18,0,0,1-1.4,1.06l-2.4.64a2.32,2.32,0,0,1-2.8-1.64c-.05-.21-.13-.52-.24-.92s-.18-.71-.24-.92-.21-.35-.48-.24-.76.23-1.42.46l-1.54.54a.36.36,0,0,0-.2.4q2.37,7.92,4.56,16.28a2.13,2.13,0,0,1-.24,1.7,2.18,2.18,0,0,1-1.4,1.06l-2.8.68a2.14,2.14,0,0,1-1.7-.24,2.24,2.24,0,0,1-1.06-1.4q-1.59-6.36-4.32-15.8c-.05-.19-.18-.25-.4-.2l-2.1.68-1.82.6a2.29,2.29,0,0,1-2.88-1.44l-.84-2.48a2.24,2.24,0,0,1,.14-1.72,2.14,2.14,0,0,1,1.34-1.12l4.12-1.24a.29.29,0,0,0,.24-.4c-.64-2-1.12-3.53-1.44-4.52a2.15,2.15,0,0,1,.16-1.7,2.24,2.24,0,0,1,1.36-1.1l2.6-.72a2.24,2.24,0,0,1,1.76.16,2.16,2.16,0,0,1,1.12,1.32c.22.67.67,2.12,1.36,4.36,0,.19.19.24.48.16s.91-.28,1.6-.52,1.19-.4,1.48-.48.3-.2.24-.44c-.37-1.17-.64-2.05-.8-2.64a2.11,2.11,0,0,1,.18-1.7,2.3,2.3,0,0,1,1.38-1.1l2.6-.72a2.09,2.09,0,0,1,1.72.18,2.14,2.14,0,0,1,1.08,1.38l.36,1.26c.19.63.32,1.11.4,1.46s.22.29.48.24A14.87,14.87,0,0,1,297.37,425.17Z" transform="translate(-101 -25.57)"/></svg>